<svg xmlns="http://www.w3.org/2000/svg" viewBox="0 0 600 600" width="600" height="600">
  <defs>
    <!-- Gradiente para o ícone -->
    <linearGradient id="iconGradient" x1="0%" y1="0%" x2="0%" y2="100%">
      <stop offset="0%" style="stop-color:#2DD4BF;stop-opacity:1" />
      <stop offset="100%" style="stop-color:#14B8A6;stop-opacity:1" />
    </linearGradient>
  </defs>
  
  <!-- Ícone do documento com código -->
  <g transform="translate(64,20)">
    <!-- Corpo principal do documento com gradiente -->
    <rect x="-55" y="0" width="580" height="560" rx="60" ry="50" fill="url(#iconGradient)"/>
    
    <!-- Área superior branca (mais integrada com o topo) -->
    <rect x="20" y="-10" width="430" height="200" rx="60" ry="60" fill="white"/>
    
    <!-- Símbolos de código dentro da área branca (posicionados mais acima) -->
    <g transform="translate(-380,960) scale(0.12,-0.12)"
        fill="#000000" stroke="none">
        <path d="M5201 7732 c-17 -13 -53 -120 -156 -467 -74 -248 -135 -460 -135
        -473 0 -30 43 -72 74 -72 58 0 66 19 201 475 70 237 130 447 132 467 10 67
        -65 112 -116 70z"/>
        <path d="M4534 7418 c-145 -145 -163 -172 -149 -225 4 -17 63 -85 150 -172
        133 -135 146 -145 181 -145 44 0 74 31 74 77 0 25 -19 49 -115 146 l-115 117
        115 119 c96 100 115 125 115 151 0 41 -36 74 -80 74 -31 0 -49 -15 -176 -142z"/>
        <path d="M5479 7541 c-16 -13 -23 -29 -23 -55 0 -33 10 -47 114 -151 l114
        -115 -117 -118 c-98 -99 -117 -124 -117 -149 0 -46 30 -77 74 -77 34 0 48 11
        177 140 78 76 147 152 154 168 23 52 4 81 -147 233 -123 124 -147 143 -174
        143 -18 0 -42 -8 -55 -19z"/>
    </g>
    
    <!-- Linhas do documento (centralizadas) -->
    <rect x="20" y="240" width="430" height="50" rx="20" ry="20" fill="white"/>
    <rect x="20" y="340" width="430" height="50" rx="20" ry="20" fill="white"/>
    <rect x="20" y="440" width="430" height="50" rx="20" ry="20" fill="white"/>
  </g>
</svg>