<?xml version="1.0" encoding="UTF-8"?>
<!DOCTYPE svg PUBLIC "-//W3C//DTD SVG 1.1//EN" "http://www.w3.org/Graphics/SVG/1.1/DTD/svg11.dtd">
<!-- Creator: CorelDRAW (Versão de avaliação) -->
<svg xmlns="http://www.w3.org/2000/svg" xml:space="preserve" width="30mm" height="30mm" version="1.1" style="shape-rendering:geometricPrecision; text-rendering:geometricPrecision; image-rendering:optimizeQuality; fill-rule:evenodd; clip-rule:evenodd"
viewBox="0 0 3000 3000"
 xmlns:xlink="http://www.w3.org/1999/xlink"
 xmlns:xodm="http://www.corel.com/coreldraw/odm/2003">
 <defs>
  <style type="text/css">
   <![CDATA[
    .fil3 {fill:#44ABB6}
    .fil1 {fill:#4FB5B9}
    .fil2 {fill:#FDC446}
    .fil0 {fill:#FFD059}
   ]]>
  </style>
 </defs>
 <g id="Camada_x0020_1">
  <metadata id="CorelCorpID_0Corel-Layer"/>
  <g id="_1911988955184">
   <g>
    <g>
     <polygon class="fil0" points="2009.23,896.92 2126.84,1402.29 2461.35,1005.63 "/>
    </g>
    <g>
     <polygon class="fil1" points="871.98,1584.44 989.62,2089.69 1324.09,1693.15 "/>
    </g>
    <g>
     <polygon class="fil2" points="1328.87,1694.3 994.39,2090.83 1446.51,2199.54 "/>
    </g>
    <g>
     <polygon class="fil0" points="993.61,2094.11 1111.22,2599.48 1445.72,2202.82 "/>
    </g>
    <g>
     <polygon class="fil2" points="1448.86,2203.57 1114.35,2600.24 1566.6,2708.98 "/>
    </g>
    <g>
     <polygon class="fil0" points="1452.27,2204.39 1569.87,2709.77 1904.38,2313.1 "/>
    </g>
    <g>
     <polygon class="fil2" points="1787.52,1804.58 1453.05,2201.12 1905.17,2309.83 "/>
    </g>
    <g>
     <polygon class="fil0" points="1790.8,1805.37 1908.44,2310.61 2242.91,1914.08 "/>
    </g>
    <g>
     <polygon class="fil2" points="2126.09,1405.43 1791.58,1802.1 2243.7,1910.81 "/>
    </g>
    <g>
     <polygon class="fil0" points="2129.36,1406.22 2246.97,1911.6 2581.47,1514.93 "/>
    </g>
    <g>
     <polygon class="fil2" points="2464.62,1006.41 2130.11,1403.08 2582.23,1511.79 "/>
    </g>
    <g>
     <polygon class="fil3" points="868.18,1585.26 533.71,1981.79 985.82,2090.5 "/>
    </g>
    <g>
     <polygon class="fil2" points="2005.57,897.77 1671.06,1294.43 2123.18,1403.14 "/>
    </g>
    <g>
     <polygon class="fil3" points="1548.54,787.88 1666.15,1293.25 2000.66,896.59 "/>
    </g>
    <g>
     <polygon class="fil3" points="1883.8,388.07 1549.33,784.6 2001.45,893.31 "/>
    </g>
    <g>
     <polygon class="fil1" points="1428.42,278.57 1546.06,783.82 1880.53,387.28 "/>
    </g>
    <g>
     <polygon class="fil3" points="1425.28,277.82 1090.81,674.35 1542.92,783.06 "/>
    </g>
    <g>
     <polygon class="fil1" points="1090.02,677.63 1207.63,1183 1542.14,786.34 "/>
    </g>
    <g>
     <polygon class="fil3" points="1086.61,676.81 752.11,1073.47 1204.22,1182.18 "/>
    </g>
    <g>
     <polygon class="fil1" points="751.35,1076.61 868.96,1581.99 1203.47,1185.32 "/>
    </g>
    <g>
     <polygon class="fil3" points="748.08,1075.82 413.58,1472.49 865.69,1581.2 "/>
    </g>
    <g>
     <polygon class="fil1" points="412.79,1475.76 530.43,1981.01 864.91,1584.47 "/>
    </g>
   </g>
  </g>
 </g>
</svg>
