<?xml version="1.0" encoding="UTF-8"?>
<!DOCTYPE svg PUBLIC "-//W3C//DTD SVG 1.1//EN" "http://www.w3.org/Graphics/SVG/1.1/DTD/svg11.dtd">
<!-- Creator: CorelDRAW (Versão de avaliação) -->
<svg xmlns="http://www.w3.org/2000/svg" xml:space="preserve" width="120mm" height="50mm" version="1.1" style="shape-rendering:geometricPrecision; text-rendering:geometricPrecision; image-rendering:optimizeQuality; fill-rule:evenodd; clip-rule:evenodd"
viewBox="0 0 12000 5000"
 xmlns:xlink="http://www.w3.org/1999/xlink"
 xmlns:xodm="http://www.corel.com/coreldraw/odm/2003">
 <defs>
  <style type="text/css">
   <![CDATA[
    .fil3 {fill:#44ABB6}
    .fil1 {fill:#4FB5B9}
    .fil2 {fill:#FDC446}
    .fil0 {fill:#FFD059}
   ]]>
  </style>
 </defs>
 <g id="Camada_x0020_1">
  <metadata id="CorelCorpID_0Corel-Layer"/>
  <g id="_1957777962864">
   <g>
    <g>
     <polygon class="fil0" points="6471.36,1750.78 6588.97,2256.15 6923.48,1859.49 "/>
    </g>
    <g>
     <polygon class="fil1" points="5334.11,2438.3 5451.75,2943.55 5786.22,2547.01 "/>
    </g>
    <g>
     <polygon class="fil2" points="5791,2548.16 5456.52,2944.69 5908.64,3053.4 "/>
    </g>
    <g>
     <polygon class="fil0" points="5455.74,2947.97 5573.35,3453.34 5907.85,3056.68 "/>
    </g>
    <g>
     <polygon class="fil2" points="5910.99,3057.43 5576.48,3454.1 6028.73,3562.84 "/>
    </g>
    <g>
     <polygon class="fil0" points="5914.4,3058.25 6032,3563.63 6366.51,3166.96 "/>
    </g>
    <g>
     <polygon class="fil2" points="6249.65,2658.44 5915.18,3054.98 6367.3,3163.69 "/>
    </g>
    <g>
     <polygon class="fil0" points="6252.93,2659.23 6370.57,3164.47 6705.04,2767.94 "/>
    </g>
    <g>
     <polygon class="fil2" points="6588.22,2259.29 6253.71,2655.96 6705.83,2764.67 "/>
    </g>
    <g>
     <polygon class="fil0" points="6591.49,2260.08 6709.1,2765.46 7043.6,2368.79 "/>
    </g>
    <g>
     <polygon class="fil2" points="6926.75,1860.27 6592.24,2256.94 7044.36,2365.65 "/>
    </g>
    <g>
     <polygon class="fil3" points="5330.31,2439.12 4995.84,2835.65 5447.95,2944.36 "/>
    </g>
    <g>
     <polygon class="fil2" points="6467.7,1751.63 6133.19,2148.29 6585.31,2257 "/>
    </g>
    <g>
     <polygon class="fil3" points="6010.67,1641.74 6128.28,2147.11 6462.79,1750.45 "/>
    </g>
    <g>
     <polygon class="fil3" points="6345.93,1241.93 6011.46,1638.46 6463.58,1747.17 "/>
    </g>
    <g>
     <polygon class="fil1" points="5890.55,1132.43 6008.19,1637.68 6342.66,1241.14 "/>
    </g>
    <g>
     <polygon class="fil3" points="5887.41,1131.68 5552.94,1528.21 6005.05,1636.92 "/>
    </g>
    <g>
     <polygon class="fil1" points="5552.15,1531.49 5669.76,2036.86 6004.27,1640.2 "/>
    </g>
    <g>
     <polygon class="fil3" points="5548.74,1530.67 5214.24,1927.33 5666.35,2036.04 "/>
    </g>
    <g>
     <polygon class="fil1" points="5213.48,1930.47 5331.09,2435.85 5665.6,2039.18 "/>
    </g>
    <g>
     <polygon class="fil3" points="5210.21,1929.68 4875.71,2326.35 5327.82,2435.06 "/>
    </g>
    <g>
     <polygon class="fil1" points="4874.92,2329.62 4992.56,2834.87 5327.04,2438.33 "/>
    </g>
   </g>
  </g>
 </g>
</svg>
